<svg width="339" height="71" viewBox="0 0 339 71" fill="none" xmlns="http://www.w3.org/2000/svg">
<path d="M116.828 23C116.828 23.8438 116.664 24.4062 116.336 24.6875C116.023 24.9531 115.68 25.0859 115.305 25.0859C115.289 25.0859 115.273 25.0859 115.258 25.0859C114.883 25.0859 114.273 24.9219 113.43 24.5938C112.57 24.25 111.555 24.0781 110.383 24.0781C109.227 24.0781 108.375 24.2812 107.828 24.6875C107.297 25.0938 106.93 25.6875 106.727 26.4688C106.539 27.2344 106.289 30.4609 105.977 36.1484C105.68 41.8203 105.531 45.0234 105.531 45.7578C105.531 46.4766 105.688 47.4297 106 48.6172C106.312 49.8047 106.469 50.4531 106.469 50.5625C106.469 51.3281 106.117 51.9219 105.414 52.3438C104.727 52.7656 103.766 52.9766 102.531 52.9766C101.297 52.9766 100.344 52.7734 99.6719 52.3672C99 51.9453 98.6641 51.3672 98.6641 50.6328C98.6641 50.3047 98.9062 49.6094 99.3906 48.5469C99.8906 47.4688 100.211 46.4141 100.352 45.3828C100.945 40.8047 101.242 35.3125 101.242 28.9062C101.242 26.9844 101.023 25.7188 100.586 25.1094C100.148 24.4844 99.3828 24.1719 98.2891 24.1719C97.1953 24.1719 96.0156 24.4141 94.75 24.8984C93.4844 25.3672 92.7109 25.6016 92.4297 25.6016C91.6641 25.6016 91.2812 24.7969 91.2812 23.1875C91.2812 21.5781 92.0312 20.6484 93.5312 20.3984C95.0312 20.1328 99.7578 20 107.711 20H109.07L110.406 19.9766C113.312 19.9766 114.961 20.0391 115.352 20.1641C116.336 20.4766 116.828 21.2422 116.828 22.4609V23Z" fill="white"/>
<path d="M115.577 47.582C115.577 49.1172 115.928 50.3945 116.631 51.4141C117.335 52.4336 118.196 52.9434 119.215 52.9434H119.743C120.95 52.9434 121.969 52.334 122.801 51.1152C123.645 49.8965 124.067 48.2734 124.067 46.2461V45.0859C124.067 43.5156 123.721 42.2324 123.03 41.2363C122.35 40.2285 121.471 39.7246 120.393 39.7246H120.042C118.788 39.7246 117.733 40.3457 116.878 41.5879C116.034 42.8301 115.612 44.3125 115.612 46.0352L115.577 46.4395V47.582ZM119.549 55.334H118.987C116.936 55.334 115.266 54.6191 113.977 53.1895C112.688 51.7598 112.044 49.7324 112.044 47.1074L112.061 46.8086C112.061 43.9258 112.823 41.6523 114.346 39.9883C115.143 39.1094 116.051 38.4648 117.071 38.0547C118.102 37.6328 119.081 37.4219 120.006 37.4219H120.868C121.899 37.4219 122.889 37.6504 123.839 38.1074C126.557 39.4199 127.917 41.8926 127.917 45.5254V45.8066C127.905 46.9902 127.712 48.1914 127.337 49.4102C126.587 51.8125 125.145 53.5117 123.012 54.5078C121.829 55.0586 120.674 55.334 119.549 55.334ZM134.236 46.4746V47.8105C134.236 49.2051 134.553 50.3711 135.186 51.3086C135.83 52.2344 136.586 52.6973 137.453 52.6973H137.945C139.281 52.6973 140.312 52.1641 141.039 51.0977C141.777 50.0312 142.146 48.4434 142.146 46.334C142.17 46.0762 142.182 45.8887 142.182 45.7715L142.217 45.4199L142.234 44.6816V43.4336C142.234 41.043 141.279 39.8477 139.369 39.8477H138.684C137.441 39.8477 136.387 40.4746 135.52 41.7285C134.664 42.9824 134.236 44.5645 134.236 46.4746ZM130.861 47.2832C130.861 46.0645 131.078 44.8223 131.512 43.5566C131.945 42.291 132.555 41.2129 133.34 40.3223C134.125 39.4199 135.01 38.7695 135.994 38.3711C136.979 37.9609 138.145 37.7559 139.492 37.7559C140.852 37.7559 141.695 37.5098 142.023 37.0176C142.352 36.5137 142.516 35.4062 142.516 33.6953C142.516 33.3789 142.463 32.957 142.357 32.4297C142.252 31.9023 142.199 31.5977 142.199 31.5156C142.199 31.0117 142.416 30.5547 142.85 30.1445C143.283 29.7227 143.852 29.5117 144.555 29.5117H144.906C145.457 29.5117 145.867 29.6406 146.137 29.8984C146.406 30.1562 146.541 30.6953 146.541 31.5156V33.1504L146.506 33.9766C146.494 34.2578 146.488 34.668 146.488 35.207C146.488 35.7344 146.4 37.4336 146.225 40.3047C146.049 43.1758 145.961 45.1504 145.961 46.2285L145.943 46.6504C145.932 46.9316 145.926 47.2012 145.926 47.459L145.908 47.8633C145.908 47.8633 145.908 48.3203 145.908 49.2344C145.908 50.418 146.002 51.3086 146.189 51.9062C146.377 52.5039 146.471 52.9316 146.471 53.1895C146.471 53.4473 146.324 53.7168 146.031 53.998C145.738 54.2793 145.281 54.4199 144.66 54.4199C144.051 54.4199 143.459 54.3203 142.885 54.1211C142.311 53.9102 141.889 53.8047 141.619 53.8047C141.35 53.8047 140.998 53.8867 140.564 54.0508C139.252 54.5312 138.051 54.7715 136.961 54.7715C136.938 54.7715 136.914 54.7715 136.891 54.7715H136.486C134.717 54.7715 133.334 54.127 132.338 52.8379C131.354 51.5371 130.861 49.832 130.861 47.7227V47.2832ZM153.74 47.582C153.74 49.1172 154.091 50.3945 154.794 51.4141C155.497 52.4336 156.359 52.9434 157.378 52.9434H157.906C159.113 52.9434 160.132 52.334 160.964 51.1152C161.808 49.8965 162.23 48.2734 162.23 46.2461V45.0859C162.23 43.5156 161.884 42.2324 161.193 41.2363C160.513 40.2285 159.634 39.7246 158.556 39.7246H158.204C156.951 39.7246 155.896 40.3457 155.04 41.5879C154.197 42.8301 153.775 44.3125 153.775 46.0352L153.74 46.4395V47.582ZM157.712 55.334H157.15C155.099 55.334 153.429 54.6191 152.14 53.1895C150.851 51.7598 150.206 49.7324 150.206 47.1074L150.224 46.8086C150.224 43.9258 150.986 41.6523 152.509 39.9883C153.306 39.1094 154.214 38.4648 155.234 38.0547C156.265 37.6328 157.244 37.4219 158.169 37.4219H159.031C160.062 37.4219 161.052 37.6504 162.001 38.1074C164.72 39.4199 166.079 41.8926 166.079 45.5254V45.8066C166.068 46.9902 165.874 48.1914 165.499 49.4102C164.749 51.8125 163.308 53.5117 161.175 54.5078C159.992 55.0586 158.837 55.334 157.712 55.334Z" fill="white"/>
<path d="M207.273 53.0469H203.688L203.102 53.0234L195.953 52.9062C195.578 52.8906 194.859 52.8828 193.797 52.8828C191.641 52.8828 190.555 52.1953 190.539 50.8203C190.539 50.5703 190.648 50.1953 190.867 49.6953C191.102 49.1953 191.281 48.7422 191.406 48.3359C191.547 47.9297 191.781 46.1328 192.109 42.9453C192.438 39.7578 192.602 35.4844 192.602 30.125L192.648 28.9766V26.9375C192.648 26.125 192.469 25.2344 192.109 24.2656C191.766 23.2812 191.594 22.5938 191.594 22.2031C191.594 21.7969 191.82 21.3516 192.273 20.8672C192.727 20.3672 193.445 20.1172 194.43 20.1172H195.555C196.758 20.1172 197.688 20.3594 198.344 20.8438C199.016 21.3125 199.352 21.8125 199.352 22.3438C199.352 22.8594 199.164 23.5703 198.789 24.4766C198.414 25.3672 198.164 26.4141 198.039 27.6172C197.539 32.4141 197.289 36.9609 197.289 41.2578L197.242 42.4062L197.219 44.1406C197.219 46.5781 197.492 48.0391 198.039 48.5234C198.586 49.0078 199.898 49.25 201.977 49.25C204.055 49.25 205.805 49.0234 207.227 48.5703C207.508 48.4766 208.055 48.2656 208.867 47.9375C209.68 47.6094 210.312 47.4453 210.766 47.4453C211.688 47.4453 212.148 48.0391 212.148 49.2266C212.148 50.7734 211.789 51.7969 211.07 52.2969C210.367 52.7969 209.102 53.0469 207.273 53.0469Z" fill="white"/>
<path d="M222.048 30.1484V30.3594C222.048 30.957 221.872 31.4668 221.52 31.8887C221.18 32.2988 220.653 32.5039 219.938 32.5039H219.657L219.112 32.4336C218.796 32.4336 218.491 32.2871 218.198 31.9941C217.905 31.7012 217.758 31.2617 217.758 30.6758V30.4648L217.846 29.832C217.846 29.5859 217.993 29.2812 218.286 28.918C218.59 28.5547 218.977 28.373 219.446 28.373L219.85 28.3203H220.202L220.694 28.3906C220.999 28.3906 221.298 28.543 221.59 28.8477C221.895 29.1406 222.048 29.5742 222.048 30.1484ZM221.221 37.5664L221.028 42.2949L220.993 42.7695L220.94 44.2109V44.8965C220.94 46.584 220.987 47.6914 221.081 48.2188C221.186 48.7461 221.38 49.2617 221.661 49.7656C221.942 50.2578 222.083 50.6152 222.083 50.8379V50.9961C222.083 51.5703 221.79 52.0273 221.204 52.3672C220.618 52.707 219.821 52.877 218.813 52.877H218.374C217.788 52.877 217.342 52.748 217.038 52.4902C216.733 52.2207 216.581 51.9336 216.581 51.6289V51.2422C216.581 51.0898 216.715 50.5508 216.985 49.625C217.255 48.6875 217.389 47.416 217.389 45.8105C217.424 45.3535 217.442 45.0371 217.442 44.8613L217.495 43.8945L217.53 43.4199C217.589 42.5996 217.618 41.9609 217.618 41.5039L217.635 40.8008C217.635 39.9219 217.489 39.1426 217.196 38.4629C216.915 37.7832 216.774 37.3613 216.774 37.1973C216.774 36.3535 217.571 35.9316 219.165 35.9316H219.798C220.395 35.9316 220.782 36.0898 220.958 36.4062C221.133 36.7109 221.221 37.0977 221.221 37.5664ZM227.365 43.1914C226.65 42.4648 226.293 41.4453 226.293 40.1328C226.293 38.8203 226.879 37.6953 228.051 36.7578C229.223 35.8086 230.676 35.334 232.41 35.334H232.867C234.402 35.334 235.621 35.5508 236.523 35.9844C237.438 36.418 237.895 37.0684 237.895 37.9355C237.895 38.791 237.514 39.2188 236.752 39.2188C236.553 39.2188 235.99 38.9844 235.064 38.5156C234.139 38.0352 233.266 37.7949 232.445 37.7949C231.625 37.7949 230.963 37.9824 230.459 38.3574C229.967 38.7207 229.721 39.2246 229.721 39.8691C229.721 40.5137 230.066 41.0762 230.758 41.5566C231.156 41.8379 232.094 42.2832 233.57 42.8926C235.059 43.502 236.119 44.0879 236.752 44.6504C237.771 45.5527 238.281 46.707 238.281 48.1133C238.281 49.5195 237.684 50.7266 236.488 51.7344C235.293 52.7305 233.74 53.2285 231.83 53.2285H231.373C229.451 53.2285 228.01 52.9531 227.049 52.4023C226.088 51.8398 225.607 51.1133 225.607 50.2227C225.607 49.3203 225.982 48.8691 226.732 48.8691C226.979 48.8691 227.617 49.1855 228.648 49.8184C229.691 50.4512 230.711 50.7676 231.707 50.7676C232.715 50.7676 233.471 50.5566 233.975 50.1348C234.479 49.7012 234.73 49.1621 234.73 48.5176C234.73 47.8613 234.414 47.2871 233.781 46.7949C233.441 46.5254 232.469 46.0391 230.863 45.3359C229.258 44.6211 228.092 43.9062 227.365 43.1914ZM250.876 51.1191C250.876 51.5879 250.589 52.0098 250.015 52.3848C249.453 52.748 248.685 52.9297 247.712 52.9297C245.896 52.9297 244.619 52.2559 243.88 50.9082C243.423 50.0645 243.195 48.0898 243.195 44.9844C243.195 41.8789 243.142 40.0742 243.036 39.5703C242.931 39.0664 242.638 38.5742 242.158 38.0938C241.677 37.6133 241.437 37.2441 241.437 36.9863C241.437 36.8926 242.005 36.2773 243.142 35.1406C243.388 34.8945 243.634 34.3496 243.88 33.5059C244.138 32.6621 244.32 32.1055 244.425 31.8359C244.777 30.9922 245.24 30.5703 245.814 30.5703H246.095C246.599 30.5703 246.956 30.7637 247.167 31.1504C247.249 31.3027 247.372 31.8535 247.536 32.8027C247.712 33.7402 247.911 34.3438 248.134 34.6133C248.357 34.8828 248.913 35.1816 249.804 35.5098C250.706 35.8262 251.158 36.166 251.158 36.5293V36.7227C251.158 37.1914 250.642 37.5898 249.611 37.918C248.591 38.2344 247.935 38.7441 247.642 39.4473C247.068 40.8652 246.781 43.1738 246.781 46.373C246.781 47.873 247.038 48.8926 247.554 49.4316C247.87 49.7598 248.503 49.9883 249.453 50.1172C250.402 50.2461 250.876 50.5801 250.876 51.1191Z" fill="white"/>
</svg>
